<?xml version="1.0" encoding="UTF-8" standalone="no"?>
<svg
   xmlns:dc="http://purl.org/dc/elements/1.1/"
   xmlns:cc="http://creativecommons.org/ns#"
   xmlns:rdf="http://www.w3.org/1999/02/22-rdf-syntax-ns#"
   xmlns:svg="http://www.w3.org/2000/svg"
   xmlns="http://www.w3.org/2000/svg"
   viewBox="0 0 256.28134 223.68933"
   height="223.68933"
   width="256.28134"
   xml:space="preserve"
   id="svg2"
   version="1.1"><metadata
     id="metadata8"><rdf:RDF><cc:Work
         rdf:about=""><dc:format>image/svg+xml</dc:format><dc:type
           rdf:resource="http://purl.org/dc/dcmitype/StillImage" /><dc:title></dc:title></cc:Work></rdf:RDF></metadata><defs
     id="defs6"><clipPath
       id="clipPath18"
       clipPathUnits="userSpaceOnUse"><path
         id="path16"
         d="M 0,167.767 H 192.211 V 0 H 0 Z" /></clipPath></defs><g
     transform="matrix(1.3333333,0,0,-1.3333333,0,223.68933)"
     id="g10"><g
       id="g12"><g
         clip-path="url(#clipPath18)"
         id="g14"><g
           transform="translate(70.2944,61.4512)"
           id="g20"><path
             id="path22"
             style="fill:#ffffff;fill-opacity:1;fill-rule:evenodd;stroke:none"
             d="M 0,0 C 0.516,0.229 1.031,0.458 1.547,0.687 1.137,2.383 0.727,4.08 0.315,5.777 -1.22,5.107 -2.755,4.437 -5.507,3.236 -2.714,1.595 -1.357,0.798 0,0 m 0.075,-7.197 c -7.467,-7.055 -15.141,-12.606 -25.187,-14.15 7.006,5.067 14.011,10.133 21.021,15.201 C -9.05,0.246 -8.175,6.144 -2.01,10.929 0.917,13.2 3.304,12.551 4.373,8.965 4.834,7.419 5.046,5.619 4.74,4.06 4.003,0.306 4.094,-2.746 7.573,-5.467 c 1.032,-0.806 0.159,-4.05 0.159,-7.287 -3.41,2.475 -5.392,3.913 -7.657,5.557" /></g><g
           transform="translate(44.0806,95.7324)"
           id="g24"><path
             id="path26"
             style="fill:#ffffff;fill-opacity:1;fill-rule:evenodd;stroke:none"
             d="m 0,0 c -0.902,-6.176 -1.817,-12.444 -2.87,-19.655 1.613,-1.333 4.194,-3.675 6.99,-5.725 3.567,-2.614 2.89,-5.784 1.995,-9.376 -0.927,-3.719 -3.614,-3.202 -6.229,-3.376 -5.813,-0.386 -11.654,-0.601 -17.424,-1.346 -6.766,-0.873 -7.587,-2.156 -6.9,-8.791 0.789,-7.615 1.813,-15.213 2.322,-22.847 0.23,-3.453 -0.541,-6.973 -0.858,-10.461 -0.609,-0.023 -1.218,-0.044 -1.827,-0.067 -1.428,7.919 -2.835,15.842 -4.286,23.756 -2.605,14.204 2.986,24.19 16.041,30.36 -0.225,0.441 -0.45,0.882 -0.675,1.323 -3.569,-1.004 -7.137,-2.009 -11.18,-3.148 1.161,6.085 5.083,9.63 9.902,12.401 1.716,0.987 3.672,1.549 5.491,2.364 5.143,2.302 7.051,5.986 4.163,10.821 -3.107,5.203 -7.177,9.946 -11.392,14.347 -10.545,11.01 -10.253,20.006 1.965,29.385 13.569,10.415 28.713,18.023 44.863,23.607 1.632,0.564 3.443,0.61 5.695,0.983 -1.588,-5.496 -3.802,-8.779 -8.891,-11.1 -13.42,-6.121 -26.436,-13.146 -39.473,-20.074 -2.859,-1.519 -5.139,-4.126 -8.055,-6.537 12.427,-8.9 24.019,-18.108 36.51,-25.867 10.655,-6.62 22.882,-4.566 34.606,-2.604 6.336,1.061 12.562,2.773 18.839,4.19 -0.002,0.578 -0.004,1.157 -0.006,1.735 -11.633,2.239 -23.267,4.479 -34.958,6.73 1.993,5.524 7.278,7.42 13.257,8.076 6.616,0.723 13.252,1.322 19.892,1.765 5.034,0.337 6.979,2.626 6.374,7.741 -0.985,8.335 0.093,17.05 -5.2,24.496 -0.579,0.816 -0.797,2.335 -0.466,3.276 1.631,4.631 3.504,9.177 5.752,14.932 C 76.363,64.738 72.954,56.677 82.345,55.656 81.988,54.258 82.01,53.307 81.556,52.733 76.898,46.846 78.007,39.999 77.736,33.206 77.485,26.921 75.836,20.692 74.578,13.071 85.335,11.311 97.536,9.313 109.727,7.317 108.559,0.336 107.042,-1.097 100.258,-0.414 92.808,0.335 85.777,-0.763 78.72,-3.288 64.158,-8.499 49.551,-13.746 33.765,-13.86 21.382,-13.95 10.568,-10.066 1.649,-1.3 0.981,-0.644 0.17,-0.132 0,0" /></g><g
           transform="translate(178.835,73.707)"
           id="g28"><path
             id="path30"
             style="fill:#ffffff;fill-opacity:1;fill-rule:evenodd;stroke:none"
             d="m 0,0 c -11.595,4.542 -21.339,2.383 -30.437,-4.262 -3.902,-2.85 -4.104,-5.838 -1.539,-9.764 5.314,-8.132 9.77,-10.001 18.813,-6.88 7.526,2.598 14.932,5.551 23.523,7.939 -2.176,-3.41 -3.764,-7.464 -6.65,-10.096 -6.139,-5.6 -13.676,-8.751 -22.045,-9.705 -29.311,-3.339 -54.621,-15.143 -75.879,-35.684 -3.317,-3.205 -7.16,-6.812 -12.324,-4.545 -4.99,2.19 -6.368,7.234 -6.541,12.11 -0.168,4.727 0.739,9.491 1.197,14.494 -1.635,-1.807 -3.369,-3.793 -5.176,-5.709 -3.537,-3.749 -6.785,-7.863 -10.747,-11.097 -7.105,-5.802 -13.391,-3.871 -15.787,5.014 -1.122,4.163 -1.156,8.913 -0.478,13.206 1.466,9.27 7.227,16.151 14.801,21.772 -1.451,-2.167 -3.281,-4.174 -4.278,-6.533 -2.354,-5.569 -5.175,-11.172 -6.068,-17.028 -0.452,-2.96 2.074,-7.571 4.685,-9.504 3.457,-2.562 6.887,0.695 9.345,3.498 3.73,4.254 6.927,9.008 10.878,13.032 4.993,5.084 10.232,10.026 15.927,14.278 2.895,2.161 7.017,3.642 10.591,3.655 3.456,0.013 7.789,-1.432 10.052,-3.829 1.331,-1.409 -0.617,-5.917 -1.23,-9.954 -7.774,6.29 -14.815,5.138 -20.887,-0.018 -6.307,-5.356 -8.982,-12.76 -7.73,-21.099 1.113,-7.415 6.319,-9.481 12.09,-4.788 4.126,3.355 7.741,7.331 11.762,10.825 15.222,13.222 26.269,18.4 49.333,23.247 -0.517,0.864 -0.891,1.684 -1.436,2.366 -4.138,5.193 -5.215,10.612 -1.63,16.608 2.219,3.711 3.901,7.766 6.321,11.33 C -23.584,14.601 -7.214,13.419 0,0" /></g><g
           transform="translate(125.1855,9.9629)"
           id="g32"><path
             id="path34"
             style="fill:#ffffff;fill-opacity:1;fill-rule:evenodd;stroke:none"
             d="m 0,0 c 1.099,2.369 2.062,4.814 3.322,7.095 3.791,6.854 3.839,6.274 11.088,4.022 10.737,-3.335 21.018,-1.384 30.225,5.295 1.442,1.046 2.766,2.254 4.467,2.984 C 45.119,9.617 37.451,4.032 27.334,2.576 22.137,1.828 16.182,2.291 11.356,4.198 6.938,5.946 5.033,5.161 3.019,1.647 2.482,0.712 1.702,-0.084 1.034,-0.943 Z" /></g><g
           transform="translate(49.8726,108.4404)"
           id="g36"><path
             id="path38"
             style="fill:#ffffff;fill-opacity:1;fill-rule:evenodd;stroke:none"
             d="m 0,0 c 1.441,4.473 3.98,6.664 8.034,7.926 16.46,5.124 32.823,10.557 49.221,15.878 0.367,-0.545 0.733,-1.09 1.098,-1.635 C 56.381,20.316 54.72,17.557 52.388,16.759 36.509,11.327 20.49,6.303 4.51,1.167 3.157,0.732 1.754,0.449 0,0" /></g><g
           transform="translate(142.7832,108.4229)"
           id="g40"><path
             id="path42"
             style="fill:#ffffff;fill-opacity:1;fill-rule:evenodd;stroke:none"
             d="m 0,0 c -1.737,16.403 -3.594,31.9 -4.861,47.446 -0.287,3.512 1.473,7.191 2.542,11.898 C 3.504,48.784 5.229,6.165 0,0" /></g><g
           transform="translate(179.0703,133.9199)"
           id="g44"><path
             id="path46"
             style="fill:#ffffff;fill-opacity:1;fill-rule:evenodd;stroke:none"
             d="M 0,0 C 0.516,0.229 1.031,0.458 1.547,0.687 1.137,2.383 0.727,4.08 0.315,5.777 -1.22,5.107 -2.755,4.437 -5.507,3.236 -2.714,1.595 -1.357,0.798 0,0 m 0.075,-7.197 c -7.467,-7.055 -15.141,-12.606 -25.187,-14.15 7.006,5.067 14.011,10.133 21.021,15.201 C -9.05,0.246 -8.175,6.144 -2.01,10.929 0.917,13.2 3.304,12.551 4.373,8.965 4.834,7.419 5.046,5.619 4.74,4.06 4.003,0.306 4.094,-2.746 7.573,-5.467 c 1.032,-0.806 0.159,-4.05 0.159,-7.287 -3.41,2.475 -5.392,3.913 -7.657,5.557" /></g><g
           transform="translate(137.5332,78.249)"
           id="g48"><path
             id="path50"
             style="fill:#ffffff;fill-opacity:1;fill-rule:evenodd;stroke:none"
             d="m 0,0 c -2.666,-2.34 -4.47,-5.085 -6.905,-5.869 -14.552,-4.683 -29.248,-8.916 -43.902,-13.282 -0.45,-0.135 -0.959,-0.07 -3.334,-0.206 2.694,2.919 4.177,6.006 6.404,6.697 15.074,4.673 30.304,8.841 45.491,13.149 C -1.97,0.567 -1.614,0.364 0,0" /></g><g
           transform="translate(187.4033,90.8887)"
           id="g52"><path
             id="path54"
             style="fill:#ffffff;fill-opacity:1;fill-rule:evenodd;stroke:none"
             d="m 0,0 c -5.007,3.543 -9.052,6.406 -14.129,9.999 2.865,2.571 6.073,7.516 8.51,7.161 C -1.762,16.6 2.803,13.133 4.648,9.623 5.651,7.718 1.655,3.184 0,0" /></g><g
           transform="translate(2.3823,88.8047)"
           id="g56"><path
             id="path58"
             style="fill:#ffffff;fill-opacity:1;fill-rule:evenodd;stroke:none"
             d="M 0,0 C 4.822,-2.157 10.102,-1.468 10.339,1.3 10.468,2.81 8.807,5.419 7.372,5.945 2.331,7.794 1.558,3.572 0,0 M 14.43,6.227 C 13.495,-0.089 9.678,-6.2 4.909,-7.38 c -1.881,-0.466 -4.718,-0.314 -5.96,0.823 -1.193,1.091 -1.673,4.106 -1.073,5.773 1.275,3.542 3.114,7.02 5.399,10.006 1.287,1.679 4.606,3.722 5.805,3.136 2.246,-1.097 3.615,-3.987 5.35,-6.131" /></g><g
           transform="translate(86.606,138.2119)"
           id="g60"><path
             id="path62"
             style="fill:#ffffff;fill-opacity:1;fill-rule:evenodd;stroke:none"
             d="M 0,0 C 2.756,1.105 5.514,2.211 8.899,3.567 4.037,7.313 2.847,6.897 0,0 m -13.319,-3.593 c 2.261,2.891 4.295,6.621 9.555,5.717 0.838,-0.145 2.07,1.22 2.918,2.084 1.85,1.887 3.375,4.153 5.429,5.756 1.008,0.786 3.493,1.112 4.253,0.444 C 9.968,9.415 10.88,7.236 10.634,5.771 9.465,-1.192 1.411,-5.586 -5.382,-3.699 c -2.397,0.666 -5.135,0.106 -7.937,0.106" /></g><g
           transform="translate(171.6758,156.3193)"
           id="g64"><path
             id="path66"
             style="fill:#ffffff;fill-opacity:1;fill-rule:evenodd;stroke:none"
             d="M 0,0 C -4.972,3.649 -6.769,2.787 -8.729,-3.596 -5.295,-2.181 -2.647,-1.091 0,0 m -21.442,-6.798 c 2.229,2.917 4.33,6.542 9.576,5.546 0.795,-0.15 2.012,1.323 2.865,2.209 1.718,1.786 3.085,4.014 5.055,5.415 1.202,0.856 3.762,1.231 4.792,0.509 1.077,-0.757 1.712,-3.226 1.395,-4.7 -1.516,-7.077 -9.206,-11.06 -16.172,-9.079 -2.255,0.64 -4.844,0.1 -7.511,0.1" /></g></g></g></g></svg>