<?xml version="1.0" encoding="UTF-8" standalone="no"?>
<!-- Created with Inkscape (http://www.inkscape.org/) -->

<svg
   xmlns:dc="http://purl.org/dc/elements/1.1/"
   xmlns:cc="http://creativecommons.org/ns#"
   xmlns:rdf="http://www.w3.org/1999/02/22-rdf-syntax-ns#"
   xmlns:svg="http://www.w3.org/2000/svg"
   xmlns="http://www.w3.org/2000/svg"
   xmlns:sodipodi="http://sodipodi.sourceforge.net/DTD/sodipodi-0.dtd"
   xmlns:inkscape="http://www.inkscape.org/namespaces/inkscape"
   version="1.1"
   id="svg2"
   width="46.46484"
   height="51.820312"
   viewBox="0 0 46.46484 51.820312"
   sodipodi:docname="logo_tweet2pic.svg"
   inkscape:version="0.92.2 2405546, 2018-03-11">
  <metadata
     id="metadata8">
    <rdf:RDF>
      <cc:Work
         rdf:about="">
        <dc:format>image/svg+xml</dc:format>
        <dc:type
           rdf:resource="http://purl.org/dc/dcmitype/StillImage" />
        <dc:title></dc:title>
      </cc:Work>
    </rdf:RDF>
  </metadata>
  <defs
     id="defs6" />
  <sodipodi:namedview
     pagecolor="#ffffff"
     bordercolor="#666666"
     borderopacity="1"
     objecttolerance="10"
     gridtolerance="10"
     guidetolerance="10"
     inkscape:pageopacity="0"
     inkscape:pageshadow="2"
     inkscape:window-width="1920"
     inkscape:window-height="1048"
     id="namedview4"
     showgrid="false"
     fit-margin-top="0"
     fit-margin-left="0"
     fit-margin-right="0"
     fit-margin-bottom="0"
     inkscape:zoom="2.0370752"
     inkscape:cx="92.982859"
     inkscape:cy="-20.710548"
     inkscape:window-x="0"
     inkscape:window-y="32"
     inkscape:window-maximized="0"
     inkscape:current-layer="svg2" />
  <path
     style="opacity:1;vector-effect:none;fill:#ffffff;fill-opacity:1;stroke:none;stroke-width:0.99999994;stroke-linecap:butt;stroke-linejoin:miter;stroke-miterlimit:4;stroke-dasharray:none;stroke-dashoffset:0;stroke-opacity:1"
     d="M 46.46484,0 44.49609,0.664063 C 43.41371,1.029583 40.41153,2.381849 37.82422,3.667969 23.87631,10.601309 13.08924,21.0644 5.12891,35.378908 3.36561,38.549728 0,46.189851 0,47.023441 c 0,0.35928 3.80633,-1.57 4.82031,-2.44336 0.27506,-0.23692 0.76055,-1.26086 1.07813,-2.275393 1.32168,-4.2222 3.83149,-8.40107 5.84179,-9.72656 1.0279,-0.67772 3.82851,-0.79193 6.17188,-0.25196 2.62216,0.60421 5.73208,0.87485 6.95703,0.60547 0.90911,-0.19991 1.70908,-0.80005 3.21094,-2.406247 1.1,-1.17643 2,-2.326851 2,-2.556641 0,-0.229799 -0.75569,-0.667739 -1.67969,-0.974609 -2.31842,-0.76999 -4.77615,-2.326639 -4.65625,-2.949219 0.0691,-0.35902 0.8213,-0.622597 2.65625,-0.929687 5.03265,-0.84225 8.59668,-1.996842 9.10742,-2.951172 0.31209,-0.58313 0.16178,-0.741124 -1.51953,-1.589844 -3.37743,-1.704934 -3.48785,-2.701183 -0.33594,-3.033203 3.61806,-0.38113 5.1498,-0.924785 5.94922,-2.109375 0.396,-0.5868 0.71875,-1.241798 0.71875,-1.455078 0,-0.21329 -0.82784,-0.875966 -1.83984,-1.472656 -1.012,-0.59669 -1.83984,-1.300453 -1.83984,-1.564453 0,-0.49032 0.23399,-0.560414 4.48046,-1.345704 L 43.36133,7.179688 44.69727,4.458985 C 45.4324,2.962985 46.13145,1.347571 46.25,0.869141 Z"
     id="path590"
     inkscape:connector-curvature="0" />
  <path
     style="opacity:1;vector-effect:none;fill:#ffffff;fill-opacity:1;stroke:none;stroke-width:0.99999994;stroke-linecap:butt;stroke-linejoin:miter;stroke-miterlimit:4;stroke-dasharray:none;stroke-dashoffset:0;stroke-opacity:1"
     d="m 21.17578,34.269528 c -0.26675,-0.0071 -0.5519,0.07802 -0.97656,0.25391 -0.79415,0.32895 -1.08242,0.70443 -1.34766,1.75781 -0.31731,1.26014 -0.52568,1.44974 -3.54492,3.20313 -3.02365,1.75593 -3.27445,1.84351 -4.33008,1.51953 -1.39417,-0.42788 -2.53558,-0.04103 -3.02148,1.02539 -0.48274,1.059513 -0.11577,2.310353 0.86523,2.953123 0.68611,0.44956 1.00196,0.47166 2.07422,0.1504 1.22888,-0.36818 1.3458,-0.33166 4.06641,1.26757 3.42601,2.01387 3.91992,2.43807 3.91992,3.36524 0,0.82503 1.37378,2.05468 2.29687,2.05468 0.33627,0 0.96449,-0.35316 1.39649,-0.78515 0.96645,-0.96645 0.99459,-1.74503 0.0996,-2.88281 -0.63974,-0.81331 -0.80414,-0.8596 -2.35352,-0.66602 -1.60103,0.20004 -1.7823,0.13943 -4.72265,-1.58203 -4.5057,-2.6379 -4.4969,-3.08327 0.11328,-5.750003 2.91152,-1.68415 3.32172,-1.83617 4.23633,-1.56055 1.38915,0.41861 2.51314,0.08081 3.07812,-0.92578 0.60896,-1.08493 0.17722,-2.44371 -0.98437,-3.0957 -0.34987,-0.19638 -0.59848,-0.29568 -0.86524,-0.30274 z"
     id="path588"
     inkscape:connector-curvature="0" />
</svg>
