<?xml version="1.0" encoding="UTF-8" standalone="no"?>
<!-- Created with Inkscape (http://www.inkscape.org/) -->

<svg
   xmlns:dc="http://purl.org/dc/elements/1.1/"
   xmlns:cc="http://creativecommons.org/ns#"
   xmlns:rdf="http://www.w3.org/1999/02/22-rdf-syntax-ns#"
   xmlns:svg="http://www.w3.org/2000/svg"
   xmlns="http://www.w3.org/2000/svg"
   xmlns:sodipodi="http://sodipodi.sourceforge.net/DTD/sodipodi-0.dtd"
   xmlns:inkscape="http://www.inkscape.org/namespaces/inkscape"
   width="76.736099mm"
   height="43.346889mm"
   viewBox="0 0 76.736101 43.346889"
   version="1.1"
   id="svg8"
   inkscape:version="0.92.4 5da689c313, 2019-01-14"
   sodipodi:docname="logo_dbsscouterfont.svg">
  <defs
     id="defs2" />
  <sodipodi:namedview
     id="base"
     pagecolor="#ffffff"
     bordercolor="#666666"
     borderopacity="1.0"
     inkscape:pageopacity="0.0"
     inkscape:pageshadow="2"
     inkscape:zoom="0.98994949"
     inkscape:cx="6.8467394"
     inkscape:cy="-44.440261"
     inkscape:document-units="mm"
     inkscape:current-layer="layer1"
     showgrid="false"
     fit-margin-top="0"
     fit-margin-left="0"
     fit-margin-right="0"
     fit-margin-bottom="0"
     inkscape:window-width="1920"
     inkscape:window-height="1080"
     inkscape:window-x="0"
     inkscape:window-y="0"
     inkscape:window-maximized="0" />
  <metadata
     id="metadata5">
    <rdf:RDF>
      <cc:Work
         rdf:about="">
        <dc:format>image/svg+xml</dc:format>
        <dc:type
           rdf:resource="http://purl.org/dc/dcmitype/StillImage" />
        <dc:title></dc:title>
      </cc:Work>
    </rdf:RDF>
  </metadata>
  <g
     inkscape:label="Layer 1"
     inkscape:groupmode="layer"
     id="layer1"
     transform="translate(-52.431247,-110.77975)">
    <g
       aria-label="over
9000"
       style="font-style:normal;font-variant:normal;font-weight:normal;font-stretch:normal;font-size:10.58333302px;line-height:1.25;font-family:'DBS Scouter';-inkscape-font-specification:'DBS Scouter';letter-spacing:0px;word-spacing:0px;fill:#000000;fill-opacity:1;stroke:none;stroke-width:0.26458332"
       id="text72"
       transform="matrix(1.8197722,0,0,1.8197722,-66.829802,-122.16166)">
      <path
         d="m 66.011675,136.95617 0.103353,-1.65365 4.072103,-0.062 q 1.054199,-0.0207 1.653646,-0.0207 0.620117,-0.0207 1.240234,0.0207 0.640788,0.0207 0.930176,0.062 0.310059,0.0207 0.620117,0.14469 0.330729,0.12403 0.434082,0.24805 0.103353,0.10335 0.206706,0.3514 0.103353,0.24805 0.103353,0.47542 0.02067,0.24805 0.02067,0.66146 v 1.4056 h -4.733561 -4.733561 z m -0.04134,-7.21403 v -1.73633 l 4.630209,0.0827 4.650878,0.0827 v 1.57097 1.57096 l -4.650878,0.0827 -4.630209,0.0827 z"
         style="stroke-width:0.26458332"
         id="path76"
         inkscape:connector-curvature="0" />
      <path
         d="m 84.904579,137.92768 -1.653646,-0.0827 -0.08268,-4.0721 q -0.02067,-1.0542 -0.04134,-1.65365 0,-0.62011 0.02067,-1.24023 0.04134,-0.64079 0.06201,-0.93018 0.04134,-0.31006 0.165364,-0.62011 0.124024,-0.33073 0.227377,-0.43409 0.124023,-0.10335 0.37207,-0.2067 0.248047,-0.10336 0.475423,-0.10336 0.248047,-0.0207 0.661458,-0.0207 h 1.42627 v 4.73357 4.73356 z m -7.21403,0.062 h -1.736328 l 0.08268,-4.63021 0.08268,-4.65088 h 1.570964 1.570963 l 0.06201,4.65088 0.08268,4.63021 z"
         style="stroke-width:0.26458332"
         id="path78"
         inkscape:connector-curvature="0" />
      <path
         d="m 87.343706,138.36177 q -0.3514,-0.26872 -0.268717,-2.58383 l 0.06201,-2.33577 1.343588,-0.062 q 0.992187,-0.062 1.198893,0.0413 0.206705,0.0827 0.37207,0.72347 l 0.227376,0.86816 3.162598,0.062 3.141927,0.0827 v 1.67431 1.67432 l -1.736328,0.0413 q -7.027995,0.14469 -7.503418,-0.18603 z m -0.227376,-7.46208 q -0.144694,-0.31006 -0.06201,-1.63298 l 0.08268,-1.2609 h 4.67155 4.650878 l 0.08268,1.63297 0.08268,1.61231 h -4.69222 q -2.831868,0 -3.782715,-0.062 -0.950846,-0.0827 -1.033528,-0.28939 z"
         style="stroke-width:0.26458332"
         id="path80"
         inkscape:connector-curvature="0" />
      <path
         d="m 99.37398,138.58914 q -1.136881,0 -1.343587,-0.2067 -0.206706,-0.20671 -0.268718,-1.65365 -0.04134,-1.44694 0.144695,-1.94303 0.144694,-0.39274 1.384928,-0.39274 h 1.219562 l 0.16537,1.92236 q 0.18603,1.94303 0.0413,2.08773 -0.20671,0.2067 -1.34359,0.18603 z m 5.10563,-0.22737 q -0.12402,-0.31006 -0.0413,-5.25033 l 0.0827,-4.96094 h 1.26091 1.28157 v 5.18832 5.18831 l -1.24023,0.062 q -1.24024,0.062 -1.34359,-0.22737 z m -6.593911,-7.89616 q -0.186035,-1.94304 -0.02067,-2.17041 0.206706,-0.28939 1.42627,-0.28939 0.785481,0 1.074871,0.18603 0.31006,0.16537 0.39274,0.68213 0.0827,0.51677 0.0207,1.81901 l -0.0827,1.52963 -1.322919,0.0827 -1.302246,0.062 z"
         style="stroke-width:0.26458332"
         id="path82"
         inkscape:connector-curvature="0" />
      <path
         d="m 66.569781,151.67361 q -0.186035,-0.14469 -0.227376,-0.49609 -0.04134,-0.33073 -0.06201,-1.77767 0,-0.86816 0.165365,-1.03353 0.144694,-0.14469 3.059244,-0.14469 h 2.935221 l -0.02067,-3.12126 q 0,-2.29443 0.04134,-2.95589 0.06201,-0.68213 0.268717,-0.80615 0.165365,-0.10335 1.240235,-0.0827 1.07487,0.0207 1.302246,0.12402 0.268717,0.10335 0.392741,0.37207 0.124023,0.28939 0.08268,4.7749 -0.02067,4.46485 -0.144694,4.69222 -0.124023,0.22738 -0.248047,0.31006 -0.103353,0.0827 -0.640788,0.16536 -0.537434,0.0827 -1.322916,0.0827 -0.764811,0.0207 -2.52181,0.0413 -4.030762,0.0413 -4.299479,-0.1447 z m -0.806152,-5.99446 q -0.227377,-0.22738 -0.227377,-2.12907 0,-1.90169 0.227377,-2.08773 0.206705,-0.18603 1.963704,-0.2067 1.178223,-0.0207 1.488281,0 0.330729,0.0207 0.434082,0.16536 0.206706,0.22738 0.227377,2.08773 0.02067,1.69498 -0.103353,1.98437 -0.165365,0.37207 -0.992188,0.41341 -0.186035,0 -1.09554,0 -1.116211,0 -1.467611,-0.0413 -0.330729,-0.0413 -0.454752,-0.18603 z"
         style="stroke-width:0.26458332"
         id="path84"
         inkscape:connector-curvature="0" />
      <path
         d="m 77.442502,151.7563 q -1.09554,-0.062 -1.302246,-0.31006 -0.186035,-0.24805 -0.186035,-4.94027 0,-4.65088 0.124023,-4.85758 0.103353,-0.16537 1.901693,-0.28939 1.81901,-0.12402 2.294433,0 l 0.434082,0.10335 -0.04134,1.61231 -0.06201,1.6123 -0.537435,0.0827 -0.558106,0.0827 v 1.73632 1.73633 l 0.475423,0.0413 q 0.454753,0.0413 0.578776,0.24805 0.103353,0.18603 0.103353,1.44694 0,1.28157 -0.103353,1.44694 -0.206705,0.3514 -3.121256,0.24805 z m 4.134114,-0.39274 q -0.103352,-0.37207 -0.103352,-1.48829 0.02067,-1.09554 0.124023,-1.2609 0.124023,-0.20671 0.764811,-0.24805 l 0.620117,-0.0413 v -1.73633 -1.73632 l -0.475423,-0.062 q -0.454752,-0.0413 -0.578776,-0.16536 -0.124023,-0.12402 -0.206706,-1.21956 -0.08268,-1.11622 0,-1.50896 l 0.103353,-0.45475 h 2.191081 2.211751 l 0.165365,0.41341 q 0.144694,0.41341 0.144694,4.83692 0,4.4235 -0.165365,4.71289 -0.103353,0.2067 -0.475423,0.24804 -0.37207,0.062 -1.943034,0.062 -1.674316,0 -1.984375,-0.0413 -0.310058,-0.0413 -0.392741,-0.31005 z"
         style="stroke-width:0.26458332"
         id="path86"
         inkscape:connector-curvature="0" />
      <path
         d="m 88.025835,151.7563 q -1.09554,-0.062 -1.302246,-0.31006 -0.186035,-0.24805 -0.186035,-4.94027 0,-4.65088 0.124023,-4.85758 0.103353,-0.16537 1.901693,-0.28939 1.81901,-0.12402 2.294433,0 l 0.434082,0.10335 -0.04134,1.61231 -0.06201,1.6123 -0.537435,0.0827 -0.558106,0.0827 v 1.73632 1.73633 l 0.475423,0.0413 q 0.454753,0.0413 0.578776,0.24805 0.103353,0.18603 0.103353,1.44694 0,1.28157 -0.103353,1.44694 -0.206705,0.3514 -3.121256,0.24805 z m 4.134114,-0.39274 q -0.103352,-0.37207 -0.103352,-1.48829 0.02067,-1.09554 0.124023,-1.2609 0.124023,-0.20671 0.764811,-0.24805 l 0.620117,-0.0413 v -1.73633 -1.73632 l -0.475423,-0.062 q -0.454752,-0.0413 -0.578776,-0.16536 -0.124023,-0.12402 -0.206706,-1.21956 -0.08268,-1.11622 0,-1.50896 l 0.103353,-0.45475 h 2.191081 2.211751 l 0.165365,0.41341 q 0.144694,0.41341 0.144694,4.83692 0,4.4235 -0.165365,4.71289 -0.103353,0.2067 -0.475423,0.24804 -0.37207,0.062 -1.943034,0.062 -1.674316,0 -1.984375,-0.0413 -0.310058,-0.0413 -0.392741,-0.31005 z"
         style="stroke-width:0.26458332"
         id="path88"
         inkscape:connector-curvature="0" />
      <path
         d="m 98.609169,151.7563 q -1.09554,-0.062 -1.302246,-0.31006 -0.186035,-0.24805 -0.186035,-4.94027 0,-4.65088 0.124023,-4.85758 0.103353,-0.16537 1.901693,-0.28939 1.819006,-0.12402 2.294436,0 l 0.43408,0.10335 -0.0413,1.61231 -0.062,1.6123 -0.53744,0.0827 -0.5581,0.0827 v 1.73632 1.73633 l 0.47542,0.0413 q 0.45475,0.0413 0.57878,0.24805 0.10335,0.18603 0.10335,1.44694 0,1.28157 -0.10335,1.44694 -0.20671,0.3514 -3.121261,0.24805 z m 4.134111,-0.39274 q -0.10335,-0.37207 -0.10335,-1.48829 0.0207,-1.09554 0.12402,-1.2609 0.12403,-0.20671 0.76482,-0.24805 l 0.62011,-0.0413 v -1.73633 -1.73632 l -0.47542,-0.062 q -0.45475,-0.0413 -0.57878,-0.16536 -0.12402,-0.12402 -0.2067,-1.21956 -0.0827,-1.11622 0,-1.50896 l 0.10335,-0.45475 h 2.19108 2.21175 l 0.16537,0.41341 q 0.14469,0.41341 0.14469,4.83692 0,4.4235 -0.16536,4.71289 -0.10336,0.2067 -0.47543,0.24804 -0.37207,0.062 -1.94303,0.062 -1.67432,0 -1.98438,-0.0413 -0.31005,-0.0413 -0.39274,-0.31005 z"
         style="stroke-width:0.26458332"
         id="path90"
         inkscape:connector-curvature="0" />
    </g>
  </g>
</svg>
