<?xml version="1.0" encoding="UTF-8" standalone="no"?>
<svg
   xmlns:dc="http://purl.org/dc/elements/1.1/"
   xmlns:cc="http://creativecommons.org/ns#"
   xmlns:rdf="http://www.w3.org/1999/02/22-rdf-syntax-ns#"
   xmlns:svg="http://www.w3.org/2000/svg"
   xmlns="http://www.w3.org/2000/svg"
   xmlns:sodipodi="http://sodipodi.sourceforge.net/DTD/sodipodi-0.dtd"
   xmlns:inkscape="http://www.inkscape.org/namespaces/inkscape"
   id="svg8"
   version="1.1"
   viewBox="0 0 27.4828 46.634399"
   height="46.634399mm"
   width="27.4828mm"
   sodipodi:docname="logo_polybarkdeconnect.svg"
   inkscape:version="0.92.4 5da689c313, 2019-01-14">
  <sodipodi:namedview
     pagecolor="#ffffff"
     bordercolor="#666666"
     borderopacity="1"
     objecttolerance="10"
     gridtolerance="10"
     guidetolerance="10"
     inkscape:pageopacity="0"
     inkscape:pageshadow="2"
     inkscape:window-width="1920"
     inkscape:window-height="1080"
     id="namedview7"
     showgrid="false"
     inkscape:zoom="1.3389615"
     inkscape:cx="-79.882576"
     inkscape:cy="88.127999"
     inkscape:window-x="0"
     inkscape:window-y="0"
     inkscape:window-maximized="0"
     inkscape:current-layer="svg8" />
  <defs
     id="defs2" />
  <metadata
     id="metadata5">
    <rdf:RDF>
      <cc:Work
         rdf:about="">
        <dc:format>image/svg+xml</dc:format>
        <dc:type
           rdf:resource="http://purl.org/dc/dcmitype/StillImage" />
        <dc:title />
      </cc:Work>
    </rdf:RDF>
  </metadata>
  <g
     transform="matrix(0.81305806,0,0,0.81305806,-49.060341,-99.554297)"
     id="layer1">
    <path
       d="m 86.715597,163.82266 h -19.05 v -29.6672 h 19.05 z m -9.4996,8.4328 q -1.27,0 -2.1844,-0.9144 -0.9144,-0.8636 -0.9144,-2.2352 0,-1.3208 0.8636,-2.1844 0.9144,-0.9144 2.2352,-0.9144 1.3716,0 2.2352,0.9144 0.9144,0.8636 0.9144,2.1844 0,1.3716 -0.9144,2.2352 -0.8636,0.9144 -2.2352,0.9144 z m 8.4836,-44.45 h -16.9672 q -2.286,0.1016 -3.7592,1.6256 -1.4732,1.4732 -1.4732,3.7084 v 35.9664 q 0,2.286 1.4732,3.7592 1.524,1.4732 3.7592,1.5748 h 16.9672 q 2.1844,-0.1016 3.6576,-1.6256 1.524,-1.4732 1.6256,-3.7084 v -35.9664 q -0.1016,-2.286 -1.6256,-3.7592 -1.4732,-1.4732 -3.6576,-1.5748 z"
       style="font-style:normal;font-variant:normal;font-weight:normal;font-stretch:normal;font-size:50.79999924px;line-height:1.25;font-family:FontAwesome;-inkscape-font-specification:FontAwesome;letter-spacing:0px;word-spacing:0px;fill:#000000;fill-opacity:1;stroke:none;stroke-width:0.26458332"
       id="path17"
       inkscape:connector-curvature="0" />
  </g>
</svg>
