<?xml version="1.0" encoding="utf-8"?>
<!-- Generator: Adobe Illustrator 16.0.0, SVG Export Plug-In . SVG Version: 6.00 Build 0)  -->
<!DOCTYPE svg PUBLIC "-//W3C//DTD SVG 1.0//EN" "http://www.w3.org/TR/2001/REC-SVG-20010904/DTD/svg10.dtd">
<svg version="1.0" id="Layer_1" xmlns="http://www.w3.org/2000/svg" xmlns:xlink="http://www.w3.org/1999/xlink" x="0px" y="0px"
	 width="61.806px" height="50.981px" viewBox="0.353 0.329 61.806 50.981" enable-background="new 0.353 0.329 61.806 50.981"
	 xml:space="preserve">
<g>
	<g>
		<path fill="#FFFFFF" d="M61.807,6.694c0.211,0,0.352,0.176,0.352,0.352c0,0.246-0.105,0.422-0.176,0.598
			c-0.809,1.582-1.336,2.672-2.109,3.938c-0.141,0.246-0.211,0.281-0.492,0.387c-3.797,1.336-8.789,3.305-13.078,5.309
			c-4.992,2.285-8.262,4.008-9.809,5.168c3.164,1.793,5.801,4.078,7.945,6.785c1.793,2.426,2.848,5.203,3.129,8.297
			c0.035,0.316,0.035,0.633,0.035,0.914c0,2.672-1.266,4.992-3.797,6.926c-2.813,1.758-6.434,3.164-10.477,4.254
			c-4.113,1.125-9.633,1.688-16.559,1.688c-4.5,0-9.457-0.949-12.516-2.988c-2.531-1.547-3.902-3.762-3.902-6.258
			c0-2.004,0.527-4.465,1.582-6.855c1.02-2.285,1.934-3.164,2.391-3.164c0.211,0,0.281,0.176,0.281,0.422
			c0,0.633-0.457,1.793-0.598,2.18c-0.527,1.477-0.949,2.602-0.949,3.691c0,2.496,1.477,4.395,4.992,5.449
			c3.375,1.02,7.453,1.582,11.109,1.582c2.777,0,5.766-0.141,8.965-0.422c3.129-0.176,6.293-0.668,9.457-1.441
			c2.813-0.703,5.379-1.652,7.348-2.848c0.141-0.07,0.387-0.316,0.387-0.492c-0.105-1.969-1.055-4.043-2.883-6.223
			c-2.145-2.496-4.57-4.395-7.313-5.941c-1.09-0.598-1.793-1.02-2.18-1.477c-0.316-0.281-0.563-0.738-0.563-1.477
			c0-0.422,0.422-2.883,0.773-3.727c0.352-0.879,0.949-1.758,3.902-3.656c3.586-2.215,6.996-3.902,10.266-5.344
			c4.113-1.828,9.105-3.797,13.359-5.309C61.174,6.835,61.561,6.694,61.807,6.694z"/>
	</g>
	<g>
		<path fill="#FFFFFF" d="M25.035,38.798c-0.257-0.113-0.197-0.51,0.342-1.731c3.124-7.075,9.21-27.83,10.644-31.079
			c0.71-1.607,2.851-3.583,4.582-4.895c0.517-0.387,1.312-0.881,1.633-0.739c0.29,0.128,0.155,0.606-0.405,2.05
			C39.845,7.599,35.922,20.316,32.088,29c-1.533,3.474-3.097,6.318-4.428,7.768C26.269,38.267,25.453,38.982,25.035,38.798z"/>
	</g>
</g>
</svg>
